# xmcd CD database file
#
# Track frame offsets:
#	150
#	33440
#	59920
#	92293
#	108053
#	162613
#	182393
#	201170
#	204880
#	215813
#	222253
#	240665
#	257713
#	262010
#	295254
#
# Disc length: 4243 seconds
#
# Revision: 1
# Processed by: cddbd v1.4PL0 Copyright (c) Steve Scherf et al.
# Submitted via: CDex 1.51
#
DISCID=e110910f
DTITLE=Chris Hinze - Tibet Impressions
DYEAR=1900
DGENRE=New Age
TTITLE0=so give them hope
TTITLE1=golden light
TTITLE2=body energy
TTITLE3=yamantaka
TTITLE4=the messege
TTITLE5=mount kailash
TTITLE6=the river
TTITLE7=workers song
TTITLE8=tribute to tsurphu part 1
TTITLE9=interlude
TTITLE10=tribute to tsurphu part 2
TTITLE11=life at barkhor
TTITLE12=streetsinger
TTITLE13=path inner peace
TTITLE14=remix of: so give them hope
EXTD=
EXTT0=
EXTT1=
EXTT2=
EXTT3=
EXTT4=
EXTT5=
EXTT6=
EXTT7=
EXTT8=
EXTT9=
EXTT10=
EXTT11=
EXTT12=
EXTT13=
EXTT14=
PLAYORDER=
